<?xml version="1.0" standalone="no"?>
<!DOCTYPE svg PUBLIC "-//W3C//DTD SVG 20010904//EN"
 "http://www.w3.org/TR/2001/REC-SVG-20010904/DTD/svg10.dtd">
<svg version="1.0" xmlns="http://www.w3.org/2000/svg"
 width="260.000000pt" height="280.000000pt" viewBox="0 0 260.000000 280.000000"
 preserveAspectRatio="xMidYMid meet">

<g transform="translate(0.000000,280.000000) scale(0.100000,-0.100000)"
fill="#000000" stroke="none">
<path d="M220 1425 l0 -685 50 0 50 0 1 608 c1 593 1 606 19 568 10 -21 22
-41 27 -45 5 -3 17 -23 26 -43 10 -21 21 -38 25 -38 4 0 15 -18 25 -40 9 -22
20 -40 24 -40 5 0 19 -25 33 -55 14 -30 28 -55 31 -55 3 0 14 -18 24 -40 10
-22 21 -40 25 -40 4 0 15 -18 25 -40 10 -22 21 -40 25 -40 4 0 18 -25 31 -55
13 -30 27 -55 31 -55 5 0 16 -18 25 -40 10 -22 21 -40 25 -40 4 0 17 -23 29
-50 12 -27 28 -50 35 -50 20 0 47 29 67 73 10 20 21 37 25 37 4 0 18 25 32 55
14 30 28 55 32 55 4 0 15 17 25 38 9 20 20 39 23 42 3 3 14 22 23 43 10 20 21
37 25 37 4 0 18 25 32 55 14 30 28 55 33 55 4 0 15 18 24 40 10 22 21 40 25
40 4 0 15 17 25 38 9 20 20 39 23 42 3 3 16 28 30 55 14 28 30 55 36 60 7 6
14 17 17 25 3 8 6 -142 6 -334 l1 -349 50 52 50 52 0 374 0 375 -57 0 c-32 0
-63 -4 -68 -8 -6 -4 -21 -29 -35 -57 -14 -27 -30 -55 -36 -62 -6 -6 -17 -25
-24 -42 -7 -17 -16 -31 -20 -31 -4 0 -15 -18 -25 -40 -10 -22 -21 -40 -24 -40
-3 0 -17 -25 -31 -55 -14 -30 -28 -55 -32 -55 -4 0 -15 -17 -24 -37 -10 -21
-23 -41 -30 -46 -7 -4 -15 -21 -19 -37 -4 -16 -12 -33 -18 -37 -7 -5 -23 -30
-37 -58 -14 -27 -30 -54 -36 -60 -6 -5 -18 -25 -25 -42 -8 -18 -17 -33 -22
-33 -4 0 -12 -11 -17 -25 -13 -35 -31 -23 -60 40 -14 30 -28 55 -32 55 -4 0
-15 17 -25 38 -9 20 -22 42 -29 47 -6 6 -20 31 -30 57 -11 27 -22 48 -26 48
-4 0 -15 17 -25 38 -9 20 -22 42 -29 47 -6 6 -18 25 -25 43 -8 17 -17 32 -21
32 -4 0 -17 20 -28 45 -11 25 -24 45 -28 45 -4 0 -15 18 -25 41 -10 22 -26 50
-37 61 -10 11 -22 34 -25 49 -4 16 -11 29 -16 29 -5 0 -14 11 -19 25 -9 23
-15 25 -70 25 l-60 0 0 -685z"/>
<path d="M1570 1818 c0 -283 1 -291 18 -272 10 10 33 30 50 43 l32 24 0 248 0
249 -50 0 -50 0 0 -292z"/>
<path d="M2264 2095 c-4 -8 -11 -15 -18 -15 -6 0 -29 -21 -51 -46 -80 -92
-151 -164 -163 -164 -7 0 -12 -4 -12 -8 0 -11 -143 -164 -217 -233 -10 -9 -45
-47 -78 -84 -33 -37 -69 -75 -79 -84 -25 -21 -110 -107 -158 -160 -21 -23 -42
-41 -47 -41 -5 0 -20 -14 -32 -31 -12 -17 -110 -120 -218 -229 -108 -109 -209
-212 -224 -229 l-29 -31 68 0 68 0 43 47 c24 25 43 50 43 55 0 4 6 8 12 8 7 0
41 30 75 67 l63 67 0 -122 0 -122 50 0 50 0 0 171 0 172 30 31 c16 17 52 55
80 85 l50 55 0 -257 0 -257 50 0 50 0 0 309 c0 364 0 364 79 285 26 -27 55
-54 62 -60 8 -6 32 -32 54 -58 22 -27 57 -64 77 -85 21 -20 57 -55 80 -79 98
-99 157 -158 170 -168 7 -7 40 -41 72 -78 l60 -66 68 0 69 0 -93 94 c-51 52
-120 123 -154 158 -34 35 -70 70 -80 79 -34 30 -121 125 -139 152 -9 15 -22
27 -29 27 -6 0 -29 21 -51 46 -22 25 -63 70 -92 100 -47 50 -60 84 -32 84 10
0 66 57 124 126 22 26 49 55 59 63 10 9 46 44 80 79 122 126 163 167 182 183
10 8 37 37 59 64 22 26 48 55 58 64 10 9 23 24 28 34 9 15 4 17 -51 17 -45 0
-62 -4 -66 -15z"/>
</g>
</svg>
